D:\PredSim\limbproperties\Ratio75_uphill30\Ratio75_uphill30_quasi_random_1.5.mot
version=1
nRows=4
nColumns=124
inDegrees=yes
endheader
                time	         pelvis_tilt	         pelvis_list	     pelvis_rotation	           pelvis_tx	           pelvis_ty	           pelvis_tz	       hip_flexion_r	     hip_adduction_r	      hip_rotation_r	        knee_angle_r	       ankle_angle_r	    subtalar_angle_r	         mtp_angle_r	       hip_flexion_l	     hip_adduction_l	      hip_rotation_l	        knee_angle_l	       ankle_angle_l	    subtalar_angle_l	         mtp_angle_l	    lumbar_extension	      lumbar_bending	     lumbar_rotation	          arm_flex_r	           arm_add_r	           arm_rot_r	        elbow_flex_r	          arm_flex_l	           arm_add_l	           arm_rot_l	        elbow_flex_l	glut_med1_r/activation	glut_med2_r/activation	glut_med3_r/activation	glut_min1_r/activation	glut_min2_r/activation	glut_min3_r/activation	semimem_r/activation	semiten_r/activation	bifemlh_r/activation	bifemsh_r/activation	    sar_r/activation	add_long_r/activation	add_brev_r/activation	add_mag1_r/activation	add_mag2_r/activation	add_mag3_r/activation	    tfl_r/activation	   pect_r/activation	   grac_r/activation	glut_max1_r/activation	glut_max2_r/activation	glut_max3_r/activation	iliacus_r/activation	  psoas_r/activation	quad_fem_r/activation	    gem_r/activation	   peri_r/activation	rect_fem_r/activation	vas_med_r/activation	vas_int_r/activation	vas_lat_r/activation	med_gas_r/activation	lat_gas_r/activation	 soleus_r/activation	tib_post_r/activation	flex_dig_r/activation	flex_hal_r/activation	tib_ant_r/activation	per_brev_r/activation	per_long_r/activation	per_tert_r/activation	ext_dig_r/activation	ext_hal_r/activation	glut_med1_l/activation	glut_med2_l/activation	glut_med3_l/activation	glut_min1_l/activation	glut_min2_l/activation	glut_min3_l/activation	semimem_l/activation	semiten_l/activation	bifemlh_l/activation	bifemsh_l/activation	    sar_l/activation	add_long_l/activation	add_brev_l/activation	add_mag1_l/activation	add_mag2_l/activation	add_mag3_l/activation	    tfl_l/activation	   pect_l/activation	   grac_l/activation	glut_max1_l/activation	glut_max2_l/activation	glut_max3_l/activation	iliacus_l/activation	  psoas_l/activation	quad_fem_l/activation	    gem_l/activation	   peri_l/activation	rect_fem_l/activation	vas_med_l/activation	vas_int_l/activation	vas_lat_l/activation	med_gas_l/activation	lat_gas_l/activation	 soleus_l/activation	tib_post_l/activation	flex_dig_l/activation	flex_hal_l/activation	tib_ant_l/activation	per_brev_l/activation	per_long_l/activation	per_tert_l/activation	ext_dig_l/activation	ext_hal_l/activation	 ercspn_r/activation	 ercspn_l/activation	 intobl_r/activation	 intobl_l/activation	 extobl_r/activation	 extobl_l/activation	
          1.38409048	        -19.54695993	          7.83984052	         -0.84053068	          2.06040757	          0.81247282	         -0.00069806	         -8.86004756	         -6.95217432	         10.81920724	        -19.93748886	         -0.87458964	         19.61552196	         28.16978388	         55.29678632	          8.20920454	        -11.82235897	        -51.51162139	         20.95747392	        -11.84561108	          0.22191765	        -15.73456204	         -7.91686290	          5.79828149	          7.20007242	        -13.50254652	         11.13400331	         56.89486800	          3.05686124	        -19.69531604	          6.60480654	         62.88159020	          0.22012548	          0.20319711	          0.26433319	          0.38735563	          0.47956130	          0.39189337	          0.05000018	          0.05000003	          0.05000001	          0.05000018	          0.34268179	          0.70795178	          0.05000009	          0.05000008	          0.05000013	          0.07985347	          0.93733557	          0.33413456	          0.05000015	          0.05000358	          0.05000034	          0.05000003	          0.96009464	          0.96864976	          0.10823922	          0.16209102	          0.25581864	          0.72272438	          0.37640771	          0.37906701	          0.31345932	          0.71224105	          0.90392428	          0.20669820	          0.66357476	          0.84934180	          0.99994530	          0.05000000	          0.58432834	          0.63367664	          0.05000001	          0.05000000	          0.05000002	          0.09652604	          0.24912083	          0.37572452	          0.05000017	          0.05000063	          0.05768498	          0.86191449	          0.05000008	          0.95647524	          0.05794339	          0.10598638	          0.17522961	          0.54812420	          0.54518061	          0.42683065	          0.26717114	          0.06382124	          0.05000514	          0.05000014	          0.52170451	          0.33555892	          0.27130039	          0.07679763	          0.07679798	          0.83234739	          0.12116169	          0.78774907	          0.06656128	          0.27753183	          0.28233129	          0.21649145	          0.05000000	          0.05000000	          0.05000000	          0.05000002	          0.05000008	          0.05000004	          0.67110684	          0.72131535	          0.29264813	          0.70936345	          0.90494632	          0.66596619	          0.20313535	          0.22290151	          0.05000000	          0.05000003	          0.05000000	          0.05000001	
          1.39331775	        -19.58786232	          8.05348865	         -1.49351006	          2.07642580	          0.81274647	         -0.00101255	         -8.87782846	         -7.41229071	         10.98657192	        -20.53122286	         -4.61768589	         20.05585820	         29.27933879	         54.10967974	          8.71049602	        -11.27000154	        -50.88968205	         20.72778610	        -12.29740338	          0.20944252	        -15.52794320	         -8.18719399	          6.05906662	          7.45854653	        -13.50984804	         11.77919620	         57.42829929	          1.83645943	        -19.78475796	          5.86426804	         63.16967077	          0.19078513	          0.17611318	          0.22910038	          0.33572525	          0.41564089	          0.33965815	          0.05000019	          0.05000005	          0.05000006	          0.05000007	          0.29700592	          0.61358927	          0.05000030	          0.05000035	          0.05000028	          0.06920987	          0.90010254	          0.28959813	          0.05000693	          0.05770030	          0.05769126	          0.05768932	          0.85612433	          0.98058983	          0.13827130	          0.14048658	          0.22172072	          0.74876357	          0.37045309	          0.37045308	          0.32107573	          0.66655030	          0.89152049	          0.17914752	          0.64469256	          0.75415778	          0.87395089	          0.05000000	          0.70911745	          0.63871443	          0.05000002	          0.05000000	          0.05000002	          0.30529303	          0.30736628	          0.43236918	          0.05000268	          0.05000026	          0.05000039	          0.84158612	          0.05000008	          0.89567499	          0.05022015	          0.09185951	          0.15187394	          0.47506531	          0.47251393	          0.37934027	          0.26884987	          0.05531456	          0.06655683	          0.19991620	          0.55995520	          0.33359690	          0.24375898	          0.06656131	          0.06656162	          0.89619998	          0.10501220	          0.86858749	          0.05768937	          0.30061814	          0.31251327	          0.23716830	          0.06158741	          0.06491222	          0.06656131	          0.05000000	          0.05000010	          0.05000050	          0.58165534	          0.62517160	          0.25364122	          0.61481277	          0.78432652	          0.57719991	          0.18371937	          0.19319109	          0.05768944	          0.05000000	          0.05000000	          0.05768939	
          1.40254502	        -19.63046645	          8.23193201	         -2.14700924	          2.09267047	          0.81284380	         -0.00131454	         -8.84207387	         -7.81304476	         11.12340749	        -21.16654338	         -8.41052317	         20.30955006	         30.02266510	         52.73281904	          9.24357049	        -10.58259606	        -50.43195157	         21.09959741	        -12.79245899	          0.16404534	        -15.27814510	         -8.41582634	          6.31136456	          7.69888427	        -13.51493221	         12.45573064	         57.86420977	          0.58519888	        -19.82141830	          5.08674716	         63.39378060	          0.37042608	          0.15263916	          0.19856370	          0.49904914	          0.36024041	          0.29438531	          0.05000060	          0.05000013	          0.05000008	          0.05000012	          0.25741817	          0.53180501	          0.05768976	          0.05768919	          0.05767874	          0.05998501	          0.91256461	          0.25099799	          0.05000048	          0.05000997	          0.05000185	          0.05000014	          0.82337172	          0.98798237	          0.11984120	          0.12176125	          0.19216768	          0.77439208	          0.32107559	          0.32107558	          0.27827971	          0.63895098	          0.90291999	          0.16829928	          0.62175482	          0.65363782	          0.75746286	          0.05000000	          0.78871232	          0.63271685	          0.05000002	          0.05000000	          0.05000002	          0.40221868	          0.57116479	          0.64855873	          0.05000111	          0.29225638	          0.41181997	          0.77644296	          0.27665685	          0.80674430	          0.06786393	          0.07961561	          0.13163078	          0.41174409	          0.40953280	          0.32877825	          0.27574113	          0.05000003	          0.05768601	          0.37980377	          0.70115162	          0.45825359	          0.29017004	          0.05768939	          0.05768966	          0.93573355	          0.28480717	          0.91863758	          0.05000000	          0.33485818	          0.35570005	          0.26919797	          0.05337845	          0.05626011	          0.05768938	          0.07300695	          0.05768972	          0.05768944	          0.74098732	          0.54184279	          0.21983351	          0.75076215	          0.86646854	          0.73822877	          0.15923152	          0.16744074	          0.05000005	          0.07693382	          0.05768944	          0.05000001	
          1.41177229	        -19.67866600	          8.37819350	         -2.77595678	          2.10889935	          0.81292576	         -0.00163030	         -8.73544205	         -8.16118939	         11.23647927	        -21.83826823	        -12.25530614	         20.40507092	         30.33753487	         51.44185562	          9.75296822	         -9.89753540	        -50.11707767	         21.55962213	        -13.45574973	          0.18455990	        -15.02598136	         -8.60155163	          6.53539246	          7.95355959	        -13.52213143	         13.14447701	         58.21212240	         -0.62730451	        -19.80454242	          4.30814109	         63.52949525	          0.32105237	          0.13229400	          0.17209725	          0.43253143	          0.31222425	          0.25514688	          0.05000022	          0.05000003	          0.05000002	          0.05000003	          0.22310704	          0.49317626	          0.05000040	          0.05000013	          0.05000019	          0.05198973	          0.93611585	          0.21754271	          0.05000011	          0.05000185	          0.05000038	          0.05000008	          0.78019300	          0.99255936	          0.10386763	          0.10553183	          0.16655376	          0.81199301	          0.27827959	          0.27827958	          0.24118795	          0.60140555	          0.87363739	          0.17335081	          0.53888161	          0.56651505	          0.65650115	          0.05000000	          0.75698762	          0.56739834	          0.05000002	          0.05000000	          0.05000002	          0.61566281	          0.73449209	          0.78240963	          0.05000041	          0.56180922	          0.63583380	          0.67295139	          0.23978146	          0.69921380	          0.05881839	          0.06900369	          0.11408585	          0.35686303	          0.63440767	          0.51381557	          0.32229648	          0.05000006	          0.05000161	          0.39144947	          0.69215325	          0.43619365	          0.32492634	          0.05000001	          0.05000024	          0.96021022	          0.24684539	          0.83156592	          0.05000001	          0.43067840	          0.44706204	          0.33923413	          0.05000000	          0.05000001	          0.05000000	          0.06327590	          0.05000031	          0.05000008	          0.79380941	          0.56444785	          0.21690252	          0.84568695	          0.91732562	          0.81927710	          0.17101433	          0.16154269	          0.05000000	          0.06667936	          0.05000005	          0.05000000	
